<svg width="121" height="36" viewBox="0 0 121 36" fill="none" xmlns="http://www.w3.org/2000/svg">
<g clip-path="url(#clip0_1_73)">
<path d="M0 4.8C0 2.14903 2.14125 0 4.78261 0H116.217C118.859 0 121 2.14903 121 4.8V31.2C121 33.851 118.859 36 116.217 36H4.78261C2.14125 36 0 33.851 0 31.2V4.8Z" fill="black"/>
<path fill-rule="evenodd" clip-rule="evenodd" d="M0 31.2V4.8C0 2.14903 2.14125 0 4.78261 0H116.217C118.859 0 121 2.14903 121 4.8V31.2C121 33.851 118.859 36 116.217 36H4.78261C2.14125 36 0 33.851 0 31.2ZM0.717391 31.2V4.8C0.717391 2.54669 2.53746 0.72 4.78261 0.72H116.217C118.463 0.72 120.283 2.54669 120.283 4.8V31.2C120.283 33.4534 118.463 35.28 116.217 35.28H4.78261C2.53746 35.28 0.717391 33.4534 0.717391 31.2Z" fill="white" fill-opacity="0.3"/>
<path d="M27.3433 18.7331C27.3309 16.6232 28.2834 15.033 30.2069 13.8604C29.1311 12.3136 27.5036 11.4628 25.3581 11.2988C23.3267 11.1379 21.1042 12.4868 20.2904 12.4868C19.4303 12.4868 17.4637 11.3545 15.9163 11.3545C12.7227 11.404 9.32886 13.9099 9.32886 19.0084C9.32886 20.5151 9.60321 22.0713 10.1519 23.6738C10.8855 25.7838 13.5304 30.9534 16.2892 30.8699C17.7319 30.8358 18.7522 29.8427 20.6294 29.8427C22.4512 29.8427 23.3945 30.8699 25.0037 30.8699C27.7872 30.8296 30.1792 26.1304 30.8758 24.014C27.143 22.2476 27.3433 18.8414 27.3433 18.7331ZM24.1034 9.29717C25.6663 7.43472 25.5245 5.73936 25.4784 5.12988C24.0974 5.21033 22.5006 6.07347 21.5912 7.13463C20.5894 8.27314 20.0006 9.68079 20.127 11.2679C21.6189 11.3824 22.9814 10.612 24.1034 9.29717Z" fill="white"/>
<path d="M44.1804 26.0516H42.5971L41.7298 23.3038H38.7155L37.8893 26.0516H36.3479L39.3344 16.697H41.1791L44.1804 26.0516ZM41.4684 22.151L40.6841 19.7084C40.6013 19.4588 40.4456 18.8712 40.2163 17.9461H40.1886C40.0972 18.344 39.9502 18.9316 39.7479 19.7084L38.9776 22.151H41.4684Z" fill="white"/>
<path d="M51.8606 22.5959C51.8606 23.7431 51.5533 24.6499 50.9383 25.3156C50.3876 25.9082 49.7037 26.2041 48.8873 26.2041C48.0061 26.2041 47.3731 25.8849 46.9876 25.2467H46.9597V28.7999H45.4735V21.5268C45.4735 20.8055 45.4546 20.0654 45.4185 19.3062H46.7255L46.8085 20.3754H46.8363C47.332 19.5698 48.0843 19.1677 49.0936 19.1677C49.8828 19.1677 50.5416 19.4819 51.0686 20.111C51.5971 20.7409 51.8606 21.5689 51.8606 22.5959ZM50.3465 22.6507C50.3465 21.9942 50.2001 21.4529 49.906 21.027C49.5846 20.5827 49.153 20.3606 48.612 20.3606C48.2452 20.3606 47.9121 20.4843 47.6144 20.7282C47.316 20.9743 47.1208 21.2955 47.0295 21.6933C46.9836 21.8789 46.9604 22.0308 46.9604 22.1503V23.2749C46.9604 23.7656 47.1096 24.1797 47.408 24.5176C47.7065 24.8558 48.0941 25.0245 48.5709 25.0245C49.1307 25.0245 49.5664 24.8066 49.878 24.3722C50.1903 23.9371 50.3465 23.3635 50.3465 22.6507Z" fill="white"/>
<path d="M59.5555 22.5959C59.5555 23.7431 59.2479 24.6499 58.6324 25.3156C58.0824 25.9082 57.3985 26.2041 56.5821 26.2041C55.7009 26.2041 55.0679 25.8849 54.6832 25.2467H54.6552V28.7999H53.169V21.5268C53.169 20.8055 53.1501 20.0654 53.1138 19.3062H54.4211L54.5038 20.3754H54.5318C55.0268 19.5698 55.7791 19.1677 56.7892 19.1677C57.5776 19.1677 58.2364 19.4819 58.7649 20.111C59.2912 20.7409 59.5555 21.5689 59.5555 22.5959ZM58.0413 22.6507C58.0413 21.9942 57.8942 21.4529 57.6001 21.027C57.2787 20.5827 56.8485 20.3606 56.3069 20.3606C55.9393 20.3606 55.6069 20.4843 55.3085 20.7282C55.0101 20.9743 54.8157 21.2955 54.7243 21.6933C54.6789 21.8789 54.6552 22.0308 54.6552 22.1503V23.2749C54.6552 23.7656 54.8044 24.1797 55.1014 24.5176C55.3999 24.8551 55.7875 25.0245 56.2657 25.0245C56.8256 25.0245 57.2612 24.8066 57.5728 24.3722C57.8851 23.9371 58.0413 23.3635 58.0413 22.6507Z" fill="white"/>
<path d="M68.1585 23.4284C68.1585 24.224 67.8844 24.8715 67.3344 25.3712C66.7301 25.9174 65.8886 26.1901 64.8073 26.1901C63.8089 26.1901 63.0085 25.9961 62.4028 25.6073L62.7472 24.3584C63.3998 24.7563 64.1157 24.9557 64.8958 24.9557C65.4556 24.9557 65.8913 24.8278 66.2043 24.5734C66.5159 24.319 66.6716 23.9774 66.6716 23.5514C66.6716 23.1718 66.5431 22.852 66.2858 22.5926C66.03 22.3332 65.6026 22.0921 65.006 21.8693C63.3816 21.2584 62.5702 20.3636 62.5702 19.1869C62.5702 18.4179 62.8545 17.7874 63.4242 17.2967C63.9916 16.8054 64.7487 16.5601 65.6954 16.5601C66.5398 16.5601 67.2409 16.7084 67.8007 17.0043L67.4294 18.226C66.9064 17.9392 66.3152 17.7958 65.6536 17.7958C65.1308 17.7958 64.7222 17.9259 64.4295 18.1845C64.182 18.4158 64.0579 18.6977 64.0579 19.0316C64.0579 19.4013 64.1994 19.7071 64.4837 19.9475C64.7312 20.1696 65.1811 20.41 65.8334 20.6694C66.6316 20.9934 67.218 21.3723 67.5951 21.8067C67.971 22.2397 68.1585 22.7817 68.1585 23.4284Z" fill="white"/>
<path d="M73.0724 20.4311H71.4341V23.706C71.4341 24.5391 71.7227 24.9552 72.3014 24.9552C72.5671 24.9552 72.7873 24.9319 72.9616 24.8856L73.0028 26.0237C72.7098 26.1339 72.3244 26.1895 71.8468 26.1895C71.2598 26.1895 70.8011 26.0088 70.4699 25.6483C70.1401 25.2869 69.9744 24.6809 69.9744 23.8298V20.4297H68.9983V19.305H69.9744V18.07L71.4341 17.6257V19.305H73.0724V20.4311Z" fill="white"/>
<path d="M80.4643 22.6234C80.4643 23.6602 80.1701 24.5114 79.5831 25.1772C78.9676 25.8624 78.1505 26.2041 77.132 26.2041C76.1504 26.2041 75.3689 25.8758 74.7861 25.2192C74.2031 24.5628 73.9119 23.734 73.9119 22.7351C73.9119 21.6899 74.2115 20.8337 74.8132 20.168C75.4134 19.5016 76.2235 19.1685 77.242 19.1685C78.2236 19.1685 79.0135 19.4967 79.6096 20.154C80.18 20.7915 80.4643 21.6147 80.4643 22.6234ZM78.9221 22.6719C78.9221 22.0498 78.7904 21.5162 78.5235 21.0713C78.2119 20.5329 77.7664 20.2643 77.1891 20.2643C76.5916 20.2643 76.1377 20.5336 75.8261 21.0713C75.5592 21.517 75.4275 22.0589 75.4275 22.7C75.4275 23.3221 75.5592 23.8556 75.8261 24.2997C76.1475 24.8383 76.5966 25.1068 77.1758 25.1068C77.7434 25.1068 78.1887 24.8328 78.5101 24.2858C78.7841 23.8324 78.9221 23.2932 78.9221 22.6719Z" fill="white"/>
<path d="M85.2954 20.6242C85.1483 20.5968 84.9914 20.5827 84.8269 20.5827C84.3039 20.5827 83.8998 20.7817 83.6152 21.1802C83.3677 21.5317 83.2436 21.9759 83.2436 22.5122V26.0515H81.7582L81.772 21.4304C81.772 20.653 81.7531 19.9452 81.7163 19.3069H83.0107L83.0652 20.5975H83.1064C83.2632 20.1539 83.5107 19.7968 83.8496 19.529C84.1806 19.2879 84.5383 19.1677 84.9238 19.1677C85.0613 19.1677 85.1851 19.1776 85.2954 19.1951V20.6242Z" fill="white"/>
<path d="M91.9423 22.3599C91.9423 22.6284 91.9251 22.8548 91.8881 23.0396H87.429C87.4464 23.706 87.6619 24.2156 88.0761 24.5672C88.4517 24.8814 88.9377 25.0388 89.5345 25.0388C90.1948 25.0388 90.7969 24.9327 91.3388 24.7196L91.5714 25.76C90.9385 26.0384 90.1912 26.1769 89.3289 26.1769C88.2915 26.1769 87.4773 25.869 86.8847 25.2538C86.2934 24.6387 85.9971 23.8129 85.9971 22.7768C85.9971 21.7596 86.2726 20.9126 86.824 20.2371C87.4012 19.5159 88.1813 19.1553 89.1629 19.1553C90.1271 19.1553 90.8569 19.5159 91.3526 20.2371C91.745 20.81 91.9423 21.5185 91.9423 22.3599ZM90.5252 21.9712C90.5348 21.5269 90.438 21.1431 90.2366 20.8191C89.9793 20.4023 89.584 20.1942 89.052 20.1942C88.566 20.1942 88.1708 20.3973 87.869 20.805C87.6215 21.1291 87.4744 21.5178 87.429 21.9705H90.5252V21.9712Z" fill="white"/>
<path d="M37.8797 10.7887H38.6456C39.3855 10.7887 39.8191 11.1225 39.8191 11.685V11.6925C39.8191 12.2137 39.363 12.555 38.6681 12.555C37.9581 12.555 37.5062 12.2737 37.4464 11.775L37.4426 11.745H36.6243L36.6281 11.79C36.684 12.6825 37.4763 13.29 38.6681 13.29C39.8226 13.29 40.6747 12.6225 40.6747 11.73V11.7225C40.6747 10.995 40.2299 10.4812 39.5089 10.3912V10.3612C40.1067 10.2225 40.5101 9.71999 40.5101 9.11999V9.1125C40.5101 8.27624 39.7703 7.69873 38.6868 7.69873C37.5583 7.69873 36.8223 8.25747 36.7663 9.1725L36.7625 9.22499H37.566L37.5695 9.1725C37.6332 8.70747 38.0256 8.43373 38.6607 8.43373C39.3071 8.43373 39.6808 8.7225 39.6808 9.2025V9.20999C39.6808 9.72747 39.2659 10.0837 38.6234 10.0837H37.8797V10.7887Z" fill="white"/>
<path d="M43.381 13.2712C43.9039 13.2712 44.3561 13.0012 44.584 12.5774H44.6027V13.1999H45.4098V10.4812C45.4098 9.68993 44.8007 9.17993 43.8406 9.17993C42.8728 9.17993 42.2862 9.70119 42.23 10.3799L42.2264 10.4212H42.9886L42.996 10.3874C43.0634 10.0724 43.3511 9.85119 43.8181 9.85119C44.3188 9.85119 44.6027 10.1137 44.6027 10.5487V10.8449L43.5304 10.9087C42.6 10.9649 42.0693 11.3849 42.0693 12.0712V12.0787C42.0693 12.7874 42.5961 13.2712 43.381 13.2712ZM42.8841 12.0599V12.0524C42.8841 11.7187 43.1531 11.5049 43.6387 11.4749L44.6027 11.4149V11.7224C44.6027 12.2362 44.1694 12.6224 43.6014 12.6224C43.1679 12.6224 42.8841 12.4049 42.8841 12.0599Z" fill="white"/>
<path d="M49.7076 9.89988V9.25488H47.1035V13.1999H47.9106V9.89988H49.7076Z" fill="white"/>
<path d="M51.2256 14.5124H52.0327V12.5362H52.0513C52.283 12.9937 52.7352 13.2787 53.2919 13.2787C54.2783 13.2787 54.9247 12.4874 54.9247 11.2312V11.2274C54.9247 9.96742 54.2819 9.17993 53.2807 9.17993C52.7201 9.17993 52.2868 9.46493 52.0513 9.93368H52.0327V9.25493H51.2256V14.5124ZM53.0714 12.5812C52.4624 12.5812 52.0291 12.0487 52.0291 11.2312V11.2274C52.0291 10.4062 52.4585 9.87368 53.0714 9.87368C53.7066 9.87368 54.1026 10.3874 54.1026 11.2274V11.2312C54.1026 12.0637 53.7066 12.5812 53.0714 12.5812Z" fill="white"/>
<path d="M56.82 14.5161C57.5898 14.5161 58.0008 14.2011 58.2923 13.3836L59.757 9.25488H58.905L57.9147 12.4649H57.8887L56.8984 9.25488H56.0242L57.4554 13.2036L57.3879 13.3911C57.2535 13.7736 57.0443 13.8749 56.6631 13.8749C56.5548 13.8749 56.4613 13.8599 56.3979 13.8449V14.4786C56.495 14.4974 56.6631 14.5161 56.82 14.5161Z" fill="white"/>
<path d="M62.5305 13.2787C63.4944 13.2787 64.1334 12.7874 64.1334 12.0524V12.0449C64.1334 11.5837 63.8493 11.2687 63.3299 11.1637V11.1337C63.7522 11.0362 64.025 10.7024 64.025 10.2787V10.2712C64.025 9.59619 63.4719 9.17993 62.5678 9.17993C61.6823 9.17993 61.1031 9.59993 61.0096 10.3012L61.006 10.3312H61.7756L61.7794 10.3049C61.8392 10.0049 62.1342 9.82119 62.5565 9.82119C62.9824 9.82119 63.2366 10.0199 63.2366 10.3574V10.3649C63.2366 10.7174 62.9937 10.8974 62.5192 10.8974H61.9549V11.4862H62.5228C63.0685 11.4862 63.3299 11.6662 63.3299 12.0449V12.0524C63.3299 12.4124 63.0236 12.6337 62.5267 12.6337C62.0821 12.6337 61.7906 12.4612 61.7009 12.1424L61.6897 12.1049H60.8975L60.9013 12.1387C60.9797 12.8362 61.6113 13.2787 62.5305 13.2787Z" fill="white"/>
<path d="M65.6851 13.1999H66.4809L68.2854 10.4286H68.3191V13.1999H69.1223V9.25488H68.3265L66.522 12.0149H66.4845V9.25488H65.6851V13.1999Z" fill="white"/>
<path d="M73.8199 9.25488H70.5508V9.89988H71.7799V13.1999H72.5908V9.89988H73.8199V9.25488Z" fill="white"/>
<path d="M76.8552 13.2787C77.8081 13.2787 78.4172 12.7087 78.5404 12.0824L78.5516 12.0412H77.7818L77.7708 12.0712C77.6699 12.3674 77.3524 12.6149 76.8741 12.6149C76.2313 12.6149 75.8241 12.1799 75.809 11.4337H78.5927V11.1599C78.5927 9.97493 77.9165 9.17993 76.8143 9.17993C75.7119 9.17993 75.002 10.0049 75.002 11.2387V11.2424C75.002 12.4874 75.7007 13.2787 76.8552 13.2787ZM76.8179 9.84368C77.3447 9.84368 77.7297 10.1774 77.7931 10.8599H75.8203C75.8951 10.1999 76.2949 9.84368 76.8179 9.84368Z" fill="white"/>
<path d="M82.5254 13.1999H84.3339C85.1857 13.1999 85.7164 12.7574 85.7164 12.0674V12.0599C85.7164 11.5761 85.3801 11.2236 84.872 11.1561V11.1261C85.2493 11.0549 85.5408 10.6836 85.5408 10.2749V10.2674C85.5408 9.64114 85.0774 9.25488 84.3115 9.25488H82.5254V13.1999ZM83.325 10.8824V9.85488H84.1434C84.5319 9.85488 84.7412 10.0311 84.7412 10.3574V10.3649C84.7412 10.7136 84.5169 10.8824 84.0611 10.8824H83.325ZM83.325 12.5999V11.4711H84.091C84.6216 11.4711 84.8868 11.6474 84.8868 12.0261V12.0336C84.8868 12.4086 84.6403 12.5999 84.1845 12.5999H83.325Z" fill="white"/>
</g>
<defs>
<clipPath id="clip0_1_73">
<rect width="121" height="36" fill="white"/>
</clipPath>
</defs>
</svg>
