<svg width="70" height="75" viewBox="0 0 70 75" fill="none" xmlns="http://www.w3.org/2000/svg">
<g clip-path="url(#clip0_1_203)">
<path d="M40.3799 62.0896C40.2906 62.0896 40.2459 62.1354 40.2459 62.2271V62.3645C40.2459 62.4562 40.2906 62.502 40.3799 62.502H58.0483C58.1822 62.502 58.2491 62.4562 58.2491 62.3645V62.2271C58.2491 62.1354 58.1822 62.0896 58.0483 62.0896H55.9737C54.5905 62.0896 53.6089 61.8375 53.0289 61.3335C52.4934 60.8294 52.0473 60.0047 51.6904 58.8591C49.4594 51.8022 47.3848 44.7453 45.4662 37.6886C43.5476 30.6317 41.6514 23.529 39.7775 16.3805C39.5098 15.4182 39.5098 14.6164 39.7775 13.9748C40.0452 13.3333 40.6698 13.0125 41.6514 13.0125H45.667C45.8008 13.0125 45.8677 12.9438 45.8677 12.8063V12.7376C45.8677 12.6459 45.8008 12.6001 45.667 12.6001H18.8965C18.718 12.6001 18.6288 12.6459 18.6288 12.7376V12.8063C18.6288 12.9438 18.718 13.0125 18.8965 13.0125H23.8491C24.7414 13.0125 25.1876 13.4249 25.1876 14.2498C25.1876 14.6164 25.1429 14.983 25.0536 15.3495C24.9645 15.6702 24.8083 16.1514 24.5852 16.7929C24.1837 17.8469 23.6929 19.1071 23.1128 20.5735C22.5775 21.9939 22.0197 23.4603 21.4397 24.9725C20.8596 26.4847 20.3019 27.951 19.7665 29.3715C19.2311 30.7921 18.7626 32.0294 18.3611 33.0832C17.5134 35.3286 16.6433 37.5282 15.751 39.6818C14.9032 41.8356 14.1447 43.8976 13.4754 45.868C12.8062 47.7927 12.2485 49.6255 11.8023 51.3669C11.4008 53.0624 11.2 54.6204 11.2 56.0409C11.2 58.4696 11.78 60.2337 12.9401 61.3335C14.1001 62.4333 15.5502 62.9832 17.2903 62.9832C18.718 62.9832 20.0119 62.5937 21.172 61.8146C22.332 60.9898 23.4252 59.9818 24.4514 58.7903C25.5222 57.5531 26.5261 56.2471 27.463 54.8723C28.4446 53.4519 29.4485 52.1459 30.4747 50.9544C31.5009 49.7172 32.5718 48.7092 33.6872 47.9301C34.8472 47.1053 36.0965 46.6929 37.435 46.6929C39.5767 46.6929 41.2275 47.3344 42.3876 48.6175C43.5476 49.9005 44.3955 51.3669 44.9308 53.0166C45.2878 54.0247 45.5555 54.9869 45.7339 55.9034C45.957 56.8199 46.1801 57.6447 46.4032 58.3779C46.4925 58.7903 46.5147 59.2257 46.4701 59.6839C46.4701 60.1422 46.3363 60.5545 46.0686 60.9211C45.8455 61.2418 45.444 61.5168 44.8639 61.7459C44.3284 61.975 43.5923 62.0896 42.6553 62.0896H40.3799ZM22.5775 34.183C25.1207 34.183 26.9722 34.7787 28.1323 35.9702C29.2923 37.1158 29.8724 38.9945 29.8724 41.6065V48.755C28.8908 49.4881 27.9316 50.2671 26.9946 51.0919C26.0576 51.9168 25.1429 52.6729 24.2506 53.3602C23.3583 54.0476 22.4882 54.6203 21.6405 55.0785C20.7927 55.491 19.945 55.6972 19.0972 55.6972C17.848 55.6972 16.7102 55.3077 15.684 54.5288C14.6578 53.7039 14.1447 52.3521 14.1447 50.4733C14.1447 49.3277 14.3232 48.0218 14.6801 46.5554C15.0816 45.0432 15.5279 43.531 16.0186 42.0189C16.554 40.5067 17.0895 39.0632 17.6249 37.6886C18.1602 36.3138 18.6064 35.1453 18.9634 34.183H22.5775ZM25.1876 17.549C25.723 16.1743 26.3922 15.2808 27.1953 14.8684C28.0431 14.456 28.9354 14.2269 29.8724 14.181V26.141C29.8724 28.8446 29.3147 30.7921 28.1993 31.9835C27.0838 33.1749 25.2098 33.7706 22.5775 33.7706H19.0972C19.7665 31.9835 20.4358 30.1964 21.1051 28.4092C21.7743 26.5764 22.3989 24.9038 22.979 23.3915C23.559 21.8793 24.0275 20.5964 24.3844 19.5424C24.786 18.4884 25.0536 17.824 25.1876 17.549ZM41.9192 41.9501C42.0083 42.2709 42.0976 42.6604 42.1868 43.1187C42.2761 43.5768 42.3207 44.0121 42.3207 44.4246C42.3653 44.837 42.343 45.2265 42.2538 45.5931C42.2092 45.9139 42.0752 46.143 41.8522 46.2805C41.763 46.3263 41.6068 46.3492 41.3837 46.3492C40.9376 46.3492 40.4021 46.2575 39.7775 46.0742C39.1974 45.8451 38.3944 45.7306 37.3681 45.7306C36.1188 45.7306 34.9141 46.0055 33.7541 46.5554C32.594 47.0595 31.434 47.701 30.2739 48.48V41.6065C30.2739 38.9486 30.8094 37.047 31.8801 35.9014C32.9957 34.7558 34.8696 34.183 37.5019 34.183H39.8444C40.2013 35.4661 40.5359 36.7721 40.8483 38.1009C41.2053 39.384 41.5622 40.6671 41.9192 41.9501ZM37.5019 33.7706C34.9588 33.7706 33.1072 33.1519 31.9472 31.9148C30.8316 30.6775 30.2739 28.7529 30.2739 26.141V14.181C31.8356 14.2269 32.9957 14.5706 33.7541 15.2121C34.5126 15.8535 35.048 16.7242 35.3604 17.824C35.8511 19.5653 36.4758 21.8335 37.2343 24.6288C37.9927 27.424 38.8182 30.4713 39.7105 33.7706H37.5019Z" fill="#212529"/>
</g>
<defs>
<clipPath id="clip0_1_203">
<rect width="70" height="74.375" fill="white"/>
</clipPath>
</defs>
</svg>
